# xmcd CD database file
#
# Track frame offsets:
#	150
#	14018
#	27740
#	41678
#	55843
#	70655
#	85518
#	98698
#	113730
#	124585
#	138105
#	153155
#	168443
#	184010
#
# Disc length: 2638 seconds
#
# Revision: 1
# Processed by: cddbd v1.5.1PL0 Copyright (c) Steve Scherf et al.
# Submitted via: CDex 1.51
#
DISCID=ac0a4c0e
DTITLE=笠置シヅ子 - 東京ブギウギ
DYEAR=1994
DGENRE=JPop
TTITLE0=東京ブギウギ
TTITLE1=センチメンタル・ダイナ
TTITLE2=ラッパと娘
TTITLE3=ホット・チャイナ
TTITLE4=アイレ可愛や
TTITLE5=ジャングル・ブギー
TTITLE6=オールマン・リバップ
TTITLE7=買物ブギー
TTITLE8=大阪ブギウギ
TTITLE9=ペニィ・セレナーデ
TTITLE10=タンゴ物語
TTITLE11=ほろよいブルース
TTITLE12=セントルイス・ブルース
TTITLE13=ヘイヘイブギー
EXTD=YEAR: 1994
EXTT0=
EXTT1=
EXTT2=
EXTT3=
EXTT4=
EXTT5=
EXTT6=
EXTT7=
EXTT8=
EXTT9=
EXTT10=
EXTT11=
EXTT12=
EXTT13=
PLAYORDER=
